<?xml version="1.0" encoding="utf-8"?>
<!-- Generator: Adobe Illustrator 19.2.1, SVG Export Plug-In . SVG Version: 6.00 Build 0)  -->
<svg version="1.2" baseProfile="tiny" id="Layer_1" xmlns="http://www.w3.org/2000/svg" xmlns:xlink="http://www.w3.org/1999/xlink"
	 x="0px" y="0px" width="30px" height="30px" viewBox="0 0 30 30" xml:space="preserve">
<path display="none" fill="#309BE2" d="M15,1.5c7.4,0,13.5,6.1,13.5,13.5S22.4,28.5,15,28.5S1.5,22.4,1.5,15S7.6,1.5,15,1.5 M15,0
	C6.7,0,0,6.7,0,15s6.7,15,15,15s15-6.7,15-15S23.3,0,15,0L15,0z"/>
<g>
	<path fill="#309BE2" d="M21,19.5l-1.4,1.4c-0.2,0.2-0.4,0.3-0.7,0.3s-0.5-0.1-0.7-0.3l-3-3l-3,3c-0.2,0.2-0.4,0.3-0.7,0.3
		c-0.3,0-0.5-0.1-0.7-0.3l-1.4-1.4c-0.2-0.2-0.3-0.4-0.3-0.7c0-0.3,0.1-0.5,0.3-0.7l3-3l-3-3c-0.2-0.2-0.3-0.4-0.3-0.7
		s0.1-0.5,0.3-0.7l1.4-1.4c0.2-0.2,0.4-0.3,0.7-0.3c0.3,0,0.5,0.1,0.7,0.3l3,3l3-3c0.2-0.2,0.4-0.3,0.7-0.3s0.5,0.1,0.7,0.3l1.4,1.4
		c0.2,0.2,0.3,0.4,0.3,0.7S21.1,12,21,12.2l-3,3l3,3c0.2,0.2,0.3,0.4,0.3,0.7C21.3,19.1,21.1,19.3,21,19.5z"/>
</g>
</svg>
