<?xml version="1.0" encoding="utf-8"?>
<!-- Generator: Adobe Illustrator 19.2.1, SVG Export Plug-In . SVG Version: 6.00 Build 0)  -->
<svg version="1.2" baseProfile="tiny" id="Layer_1" xmlns="http://www.w3.org/2000/svg" xmlns:xlink="http://www.w3.org/1999/xlink"
	 x="0px" y="0px" width="30px" height="30px" viewBox="0 0 30 30" xml:space="preserve">
<g>
	<path d="M25.4,22.5c0,2.9-2.3,5.2-5.2,5.2H5.2c-2.9,0-5.2-2.3-5.2-5.2V7.5c0-2.9,2.3-5.2,5.2-5.2h14.9c0.7,0,1.4,0.1,2.1,0.4
		c0.2,0.1,0.3,0.2,0.3,0.4c0,0.2,0,0.4-0.2,0.5l-0.9,0.9c-0.1,0.1-0.3,0.2-0.4,0.2c-0.1,0-0.1,0-0.2,0c-0.3-0.1-0.5-0.1-0.8-0.1H5.2
		C3.7,4.7,2.4,6,2.4,7.5v14.9c0,1.6,1.3,2.9,2.9,2.9h14.9c1.6,0,2.9-1.3,2.9-2.9v-4.6c0-0.1,0.1-0.3,0.2-0.4l1.1-1.1
		c0.1-0.1,0.3-0.2,0.4-0.2c0.1,0,0.1,0,0.2,0.1c0.2,0.1,0.4,0.3,0.4,0.5V22.5z M14.9,22.6c-0.6,0.6-1.5,0.6-2,0l-7.7-7.7
		c-0.6-0.6-0.6-1.5,0-2l2-2c0.6-0.6,1.5-0.6,2,0l4.7,4.7L25.5,4c0.6-0.6,1.5-0.6,2,0l2,2c0.6,0.6,0.6,1.5,0,2L14.9,22.6z"/>
</g>
</svg>
