<?xml version="1.0" encoding="utf-8"?>
<!-- Generator: Adobe Illustrator 19.1.0, SVG Export Plug-In . SVG Version: 6.00 Build 0)  -->
<svg version="1.2" baseProfile="tiny" id="Layer_1" xmlns="http://www.w3.org/2000/svg" xmlns:xlink="http://www.w3.org/1999/xlink"
	 x="0px" y="0px" viewBox="0 0 2048.4 10.4" xml:space="preserve">
<g>
	<g>
		<polygon fill="#4B88BF" points="0,0 24.1,0 11.5,10.4 0,10.4 		"/>
		<polygon fill="#CC5E5E" points="58.9,10.4 34.2,10.4 46.9,0 71.5,0 		"/>
		<polygon fill="#4B88BF" points="106.2,10.4 81.6,10.4 94.2,0 118.9,0 		"/>
		<polygon fill="#CC5E5E" points="153.6,10.4 129,10.4 141.6,0 166.2,0 		"/>
		<polygon fill="#4B88BF" points="200.9,10.4 176.3,10.4 188.9,0 213.6,0 		"/>
		<polygon fill="#CC5E5E" points="248.3,10.4 223.7,10.4 236.3,0 260.9,0 		"/>
		<polygon fill="#4B88BF" points="295.7,10.4 271,10.4 283.7,0 308.3,0 		"/>
		<polygon fill="#CC5E5E" points="343,10.4 318.4,10.4 331,0 355.7,0 		"/>
		<polygon fill="#4B88BF" points="390.4,10.4 365.8,10.4 378.4,0 403,0 		"/>
		<polygon fill="#CC5E5E" points="437.7,10.4 413.1,10.4 425.7,0 450.4,0 		"/>
		<polygon fill="#4B88BF" points="485.1,10.4 460.5,10.4 473.1,0 497.7,0 		"/>
		<polygon fill="#CC5E5E" points="532.5,10.4 507.8,10.4 520.5,0 545.1,0 		"/>
		<polygon fill="#4B88BF" points="579.8,10.4 555.2,10.4 567.8,0 592.4,0 		"/>
		<polygon fill="#CC5E5E" points="627.2,10.4 602.5,10.4 615.2,0 639.8,0 		"/>
		<polygon fill="#4B88BF" points="674.5,10.4 649.9,10.4 662.5,0 687.2,0 		"/>
		<polygon fill="#CC5E5E" points="722.5,0 722.5,9.9 721.9,10.4 697.3,10.4 709.9,0 		"/>
	</g>
	<g>
		<polygon fill="#4B88BF" points="663,0 687.2,0 674.5,10.4 663,10.4 		"/>
		<polygon fill="#CC5E5E" points="721.9,10.4 697.3,10.4 709.9,0 734.5,0 		"/>
		<polygon fill="#4B88BF" points="769.3,10.4 744.6,10.4 757.3,0 781.9,0 		"/>
		<polygon fill="#CC5E5E" points="816.6,10.4 792,10.4 804.6,0 829.2,0 		"/>
		<polygon fill="#4B88BF" points="864,10.4 839.3,10.4 852,0 876.6,0 		"/>
		<polygon fill="#CC5E5E" points="911.3,10.4 886.7,10.4 899.3,0 924,0 		"/>
		<polygon fill="#4B88BF" points="958.7,10.4 934.1,10.4 946.7,0 971.3,0 		"/>
		<polygon fill="#CC5E5E" points="1006.1,10.4 981.4,10.4 994,0 1018.7,0 		"/>
		<polygon fill="#4B88BF" points="1053.4,10.4 1028.8,10.4 1041.4,0 1066,0 		"/>
		<polygon fill="#CC5E5E" points="1100.8,10.4 1076.1,10.4 1088.8,0 1113.4,0 		"/>
		<polygon fill="#4B88BF" points="1148.1,10.4 1123.5,10.4 1136.1,0 1160.8,0 		"/>
		<polygon fill="#CC5E5E" points="1195.5,10.4 1170.9,10.4 1183.5,0 1208.1,0 		"/>
		<polygon fill="#4B88BF" points="1242.8,10.4 1218.2,10.4 1230.8,0 1255.5,0 		"/>
		<polygon fill="#CC5E5E" points="1290.2,10.4 1265.6,10.4 1278.2,0 1302.8,0 		"/>
		<polygon fill="#4B88BF" points="1337.6,10.4 1312.9,10.4 1325.6,0 1350.2,0 		"/>
		<polygon fill="#CC5E5E" points="1385.5,0 1385.5,9.9 1384.9,10.4 1360.3,10.4 1372.9,0 		"/>
	</g>
	<g>
		<polygon fill="#4B88BF" points="1325.9,0 1350,0 1337.4,10.4 1325.9,10.4 		"/>
		<polygon fill="#CC5E5E" points="1384.8,10.4 1360.1,10.4 1372.8,0 1397.4,0 		"/>
		<polygon fill="#4B88BF" points="1432.1,10.4 1407.5,10.4 1420.1,0 1444.8,0 		"/>
		<polygon fill="#CC5E5E" points="1479.5,10.4 1454.9,10.4 1467.5,0 1492.1,0 		"/>
		<polygon fill="#4B88BF" points="1526.8,10.4 1502.2,10.4 1514.8,0 1539.5,0 		"/>
		<polygon fill="#CC5E5E" points="1574.2,10.4 1549.6,10.4 1562.2,0 1586.8,0 		"/>
		<polygon fill="#4B88BF" points="1621.6,10.4 1596.9,10.4 1609.6,0 1634.2,0 		"/>
		<polygon fill="#CC5E5E" points="1668.9,10.4 1644.3,10.4 1656.9,0 1681.5,0 		"/>
		<polygon fill="#4B88BF" points="1716.3,10.4 1691.6,10.4 1704.3,0 1728.9,0 		"/>
		<polygon fill="#CC5E5E" points="1763.6,10.4 1739,10.4 1751.6,0 1776.3,0 		"/>
		<polygon fill="#4B88BF" points="1811,10.4 1786.4,10.4 1799,0 1823.6,0 		"/>
		<polygon fill="#CC5E5E" points="1858.4,10.4 1833.7,10.4 1846.4,0 1871,0 		"/>
		<polygon fill="#4B88BF" points="1905.7,10.4 1881.1,10.4 1893.7,0 1918.3,0 		"/>
		<polygon fill="#CC5E5E" points="1953.1,10.4 1928.4,10.4 1941.1,0 1965.7,0 		"/>
		<polygon fill="#4B88BF" points="2000.4,10.4 1975.8,10.4 1988.4,0 2013.1,0 		"/>
		<polygon fill="#CC5E5E" points="2048.4,0 2048.4,9.9 2047.8,10.4 2023.2,10.4 2035.8,0 		"/>
	</g>
</g>
</svg>
