<?xml version="1.0" encoding="utf-8"?>
<!-- Generator: Adobe Illustrator 19.2.1, SVG Export Plug-In . SVG Version: 6.00 Build 0)  -->
<svg version="1.2" baseProfile="tiny" id="Layer_1" xmlns="http://www.w3.org/2000/svg" xmlns:xlink="http://www.w3.org/1999/xlink"
	 x="0px" y="0px" width="439.1px" height="67.6px" viewBox="0 0 439.1 67.6" xml:space="preserve">
<g>
	<path fill="#309BE2" d="M0,33.8C0,14.1,14.4,0,34.1,0c19.8,0,34.2,14.1,34.2,33.8c0,19.7-14.4,33.8-34.2,33.8
		C14.4,67.6,0,53.5,0,33.8z M54,33.8c0-12.3-7.8-21.5-19.9-21.5c-12.1,0-19.8,9.2-19.8,21.5c0,12.2,7.7,21.5,19.8,21.5
		C46.2,55.3,54,46,54,33.8z"/>
	<path d="M94.5,66.4L69.2,1.1h15.9l18.1,50.3l18-50.3h15.9l-25.2,65.4H94.5z"/>
	<path d="M143.2,66.4V1.1h13.9v65.4H143.2z"/>
	<path d="M165.6,57.2l7.5-10.6c4.6,4.8,11.8,8.8,20.8,8.8c7.6,0,11.4-3.5,11.4-7.3c0-11.6-37.6-3.6-37.6-28.2
		c0-10.9,9.4-19.9,24.8-19.9c10.4,0,19,3.1,25.5,9.1l-7.7,10.2c-5.3-4.9-12.3-7.2-19-7.2c-6,0-9.3,2.6-9.3,6.6
		c0,10.4,37.5,3.4,37.5,27.8c0,12-8.5,21-26.2,21C180.7,67.6,171.7,63.4,165.6,57.2z"/>
	<path d="M272.9,66.4l-4-11.1h-28l-4.1,11.1h-15.9l25.3-65.4h17.4l25.2,65.4H272.9z M254.9,15l-10.2,28.1h20.4L254.9,15z"/>
	<path d="M293,59.6c0-4.3,3.6-7.9,7.9-7.9s7.9,3.6,7.9,7.9c0,4.3-3.6,7.9-7.9,7.9S293,63.9,293,59.6z"/>
	<path fill="#309BE2" d="M320,66.4V1.1h34.4c12.4,0,18.8,7.9,18.8,16.7c0,8.2-5.1,13.7-11.3,15c7,1.1,12.5,7.8,12.5,16.1
		c0,9.8-6.6,17.6-19,17.6H320z M359,20.2c0-4.1-2.9-7.2-7.6-7.2h-17.4v14.2h17.4C356,27.2,359,24.3,359,20.2z M360.2,46.8
		c0-4.1-2.9-7.6-8.4-7.6h-17.9v15.2h17.9C357.1,54.4,360.2,51.6,360.2,46.8z"/>
	<path fill="#309BE2" d="M400.2,66.4V39.7L375,1.1h15.9l16.3,26.3l16.1-26.3h15.9l-25,38.6v26.8H400.2z"/>
</g>
</svg>
