<?xml version="1.0" encoding="utf-8"?>
<!-- Generator: Adobe Illustrator 19.2.0, SVG Export Plug-In . SVG Version: 6.00 Build 0)  -->
<svg version="1.1" xmlns="http://www.w3.org/2000/svg" xmlns:xlink="http://www.w3.org/1999/xlink" x="0px" y="0px" width="32px"
	 height="30px" viewBox="0 0 32 30" enable-background="new 0 0 32 30" xml:space="preserve">
<g id="Layer_13">
</g>
<g id="User">
</g>
<g id="Phone">
</g>
<g id="Mail">
</g>
<g id="Text">
</g>
<g id="Docs">
</g>
<g id="World">
</g>
<g id="Pin">
</g>
<g id="Date">
</g>
<g id="Key">
</g>
<g id="Layer_10">
</g>
<g id="Bilding">
</g>
<g id="Port">
</g>
<g id="Close">
	<g>
		<path fill="#FFFFFF" d="M21.9,19.5l-1.4,1.4c-0.2,0.2-0.5,0.2-0.7,0L16,17l-3.8,3.8c-0.2,0.2-0.5,0.2-0.7,0l-1.3-1.3
			c-0.2-0.2-0.2-0.5,0-0.7L14,15l-3.8-3.9c-0.2-0.2-0.2-0.5,0-0.7l1.4-1.4C11.7,9,12,9,12.2,9.1L16,13l3.8-3.8C20,9,20.3,9,20.5,9.1
			l1.3,1.3c0.2,0.2,0.2,0.5,0,0.7L18,15l3.8,3.8C22,19,22,19.3,21.9,19.5z"/>
	</g>
</g>
<g id="Layer_15">
</g>
</svg>
