<?xml version="1.0" encoding="utf-8"?>
<!-- Generator: Adobe Illustrator 19.1.0, SVG Export Plug-In . SVG Version: 6.00 Build 0)  -->
<svg version="1.2" baseProfile="tiny" id="Layer_1" xmlns="http://www.w3.org/2000/svg" xmlns:xlink="http://www.w3.org/1999/xlink"
	 x="0px" y="0px" viewBox="0 0 831.5 82.8" xml:space="preserve">
<g>
	<path fill="#309BE2" d="M4.8,74V8.7h34.4C51.6,8.7,58,16.6,58,25.3c0,8.2-5.1,13.7-11.3,15c7,1.1,12.5,7.8,12.5,16.1
		c0,9.8-6.6,17.6-19,17.6H4.8z M43.8,27.8c0-4.1-2.9-7.2-7.6-7.2H18.7v14.2h17.4C40.9,34.8,43.8,31.9,43.8,27.8z M45.1,54.4
		c0-4.1-2.9-7.6-8.4-7.6H18.7V62h17.9C41.9,62,45.1,59.1,45.1,54.4z"/>
	<path fill="#309BE2" d="M69.8,74V8.7h13.9v42.2L114,8.7h14.3V74h-13.9V30.2L83.2,74H69.8z"/>
	<path fill="#309BE2" d="M136.7,64.7l7.3-9.3c4.5,4.7,12.7,7.4,19.1,7.4c8.6,0,13.6-3.4,13.6-8.3c0-5.2-4.6-7.5-14.4-7.5h-13.2V34.7
		h13.2c7.7,0,13.3-2.2,13.3-7c0-5.2-5.9-7.7-13.3-7.7c-6.4,0-13.1,2.4-17.7,6.8l-7-8.7c5.3-6,14.6-10.4,26.1-10.4
		c15.3,0,25.9,6.9,25.9,17.7c0,8.2-7.1,13.6-14.2,14.9c6.6,0.7,15.2,5.9,15.2,15.7c0,11.3-11.3,19.2-26.9,19.2
		C151.6,75.2,141.5,70.6,136.7,64.7z"/>
	<path fill="#309BE2" d="M246.1,74l-4-11.1h-28L209.9,74H194l25.3-65.4h17.4L262,74H246.1z M228,22.6l-10.2,28.1h20.4L228,22.6z"/>
	<path d="M324.9,74V28.3L306.4,74h-6.1l-18.4-45.8V74H268V8.7h19.5l15.9,39.5l15.9-39.5h19.6V74H324.9z"/>
	<path d="M351.8,74V8.7h13.9v42.2L396,8.7h14.3V74h-13.9V30.2L365.2,74H351.8z"/>
	<path d="M468,74V46.6h-30.9V74h-13.9V8.7h13.9v25.7H468V8.7h14V74H468z"/>
	<path d="M491.8,41.4c0-20.1,15.2-33.8,34.8-33.8c14.4,0,22.7,7.8,27.3,16l-12,5.9c-2.7-5.3-8.6-9.5-15.4-9.5
		c-11.9,0-20.5,9.1-20.5,21.5s8.6,21.5,20.5,21.5c6.8,0,12.6-4.1,15.4-9.5l12,5.8c-4.7,8.1-12.9,16.1-27.3,16.1
		C506.9,75.2,491.8,61.5,491.8,41.4z"/>
	<path d="M601,74l-19.8-26.2l-5.1,6.1V74h-13.9V8.7h13.9v29.2l23.1-29.2h17.2l-26,30.7L618.2,74H601z"/>
	<path d="M622.7,67.2c0-4.3,3.6-7.9,7.9-7.9s7.9,3.6,7.9,7.9c0,4.3-3.6,7.9-7.9,7.9S622.7,71.5,622.7,67.2z"/>
	<path fill="#309BE2" d="M697.4,8.7v12.3h-33.8v11.6h17c13.9,0,21.7,9.5,21.7,20.8c0,11.3-7.6,20.8-21.7,20.8h-30.9V8.7H697.4z
		 M663.6,44.7v17.1h15.1c5.4,0,9.3-3.3,9.3-8.5c0-5.3-3.9-8.5-9.3-8.5H663.6z"/>
	<path fill="#309BE2" d="M710.8,74V8.7H757v12.3h-32.3v13.8h31.7V47h-31.7v14.8H757V74H710.8z"/>
	<path fill="#309BE2" d="M764,62.9c6.6,0,10.4-3.5,12.4-20.8l3.8-33.4h46.5V74h-14V20.9h-19.9l-2.5,22.1
		c-3.1,27.1-12.9,32.1-26.3,32.1V62.9z"/>
</g>
</svg>
